<?xml version="1.0" encoding="UTF-8" standalone="no"?>
<svg
   viewBox="0 0 400 225"
   version="1.1"
   id="svg102"
   sodipodi:docname="icon.svg"
   inkscape:version="1.2.2 (b0a8486541, 2022-12-01)"
   xmlns:inkscape="http://www.inkscape.org/namespaces/inkscape"
   xmlns:sodipodi="http://sodipodi.sourceforge.net/DTD/sodipodi-0.dtd"
   xmlns="http://www.w3.org/2000/svg"
   xmlns:svg="http://www.w3.org/2000/svg">
  <sodipodi:namedview
     id="namedview104"
     pagecolor="#ffffff"
     bordercolor="#000000"
     borderopacity="0.25"
     inkscape:showpageshadow="2"
     inkscape:pageopacity="0.0"
     inkscape:pagecheckerboard="0"
     inkscape:deskcolor="#d1d1d1"
     showgrid="false"
     inkscape:zoom="1.0488889"
     inkscape:cx="23.834746"
     inkscape:cy="112.5"
     inkscape:window-width="1920"
     inkscape:window-height="1129"
     inkscape:window-x="-8"
     inkscape:window-y="-8"
     inkscape:window-maximized="1"
     inkscape:current-layer="timeline" />
  <defs
     id="defs56">
    <style
       id="style54">
      .cls-1 {
        isolation: isolate;
      }

      .cls-2 {
        fill: #62a6ef;
      }

      .cls-3 {
        opacity: 0.15;
        mix-blend-mode: multiply;
      }

      .cls-4 {
        fill: #36c670;
      }

      .cls-5 {
        fill: #d85d6f;
      }

      .cls-6 {
        fill: #f4c84d;
      }

      .cls-7 {
        fill: none;
      }
    </style>
  </defs>
  <title
     id="title58">timeline</title>
  <g
     class="cls-1"
     id="g100">
    <g
       id="timeline">
      <rect
         class="cls-2"
         x="96"
         y="140.5"
         width="205"
         height="8"
         id="rect60" />
      <g
         id="g68"
         style="fill:#0000ff">
        <g
           class="cls-3"
           id="g64"
           style="fill:#0000ff">
          <polygon
             points="153,131.06 153,123.09 153,80.5 96,80.5 96,131.5 144.26,131.5 153,137.84 "
             id="polygon62"
             style="fill:#0000ff" />
        </g>
        <polygon
           class="cls-4"
           points="153,124.06 153,116.09 153,73.5 96,73.5 96,124.5 144.26,124.5 153,130.84 "
           id="polygon66"
           style="fill:#0000ff" />
      </g>
      <g
         id="g76"
         style="stroke:#000000;stroke-opacity:1">
        <g
           class="cls-3"
           id="g72"
           style="stroke:#000000;stroke-opacity:1">
          <polygon
             points="224,131.06 224,123.09 224,80.5 167,80.5 167,131.5 215.1,131.5 224,137.84 "
             id="polygon70"
             style="stroke:#000000;stroke-opacity:1" />
        </g>
        <polygon
           class="cls-5"
           points="224,124.06 224,116.09 224,73.5 167,73.5 167,124.5 215.1,124.5 224,130.84 "
           id="polygon74"
           style="fill:#ffffff;stroke:#000000;stroke-opacity:1" />
      </g>
      <g
         id="g84">
        <g
           class="cls-3"
           id="g80">
          <polygon
             points="254,131.06 254,123.09 254,80.5 311,80.5 311,131.5 262.63,131.5 254,137.84 "
             id="polygon78" />
        </g>
        <polygon
           class="cls-6"
           points="254,124.06 254,116.09 254,73.5 311,73.5 311,124.5 262.63,124.5 254,130.84 "
           id="polygon82"
           style="fill:#ff0000" />
      </g>
      <circle
         class="cls-4"
         cx="152.87"
         cy="144.49001"
         r="9.1999998"
         id="circle86"
         style="fill:#0000ff" />
      <circle
         class="cls-5"
         cx="223.71001"
         cy="144.49001"
         r="9.1999998"
         id="circle88"
         style="fill:#ffffff;stroke:#000000;stroke-opacity:1" />
      <circle
         class="cls-6"
         cx="254.02"
         cy="144.49001"
         r="9.1999998"
         id="circle90"
         style="fill:#ff0000" />
      <polygon
         class="cls-2"
         points="311.59,144.48 298,153.66 298,135.3 "
         id="polygon92" />
      <rect
         class="cls-7"
         width="400"
         height="225"
         id="rect96"
         x="0"
         y="0" />
    </g>
  </g>
</svg>
